<svg width="18" height="18" viewBox="0 0 18 18" fill="none" xmlns="http://www.w3.org/2000/svg">
<mask id="mask0_281_3421" style="mask-type:luminance" maskUnits="userSpaceOnUse" x="0" y="0" width="18" height="18">
<rect width="18" height="18" fill="white"/>
</mask>
<g mask="url(#mask0_281_3421)">
<path fill-rule="evenodd" clip-rule="evenodd" d="M9 1.875C5.06498 1.875 1.87501 5.06496 1.875 8.99998C1.87499 12.935 5.06494 16.125 8.99997 16.125C12.935 16.125 16.125 12.9351 16.125 9.00003C16.125 5.06501 12.9351 1.87503 9.00003 1.875H9Z" fill="#039BE5"/>
<path fill-rule="evenodd" clip-rule="evenodd" d="M9.965 10.8885H11.8089L12.0984 9.01535H9.96462V7.9916C9.96462 7.21348 10.2189 6.52348 10.9467 6.52348H12.1164V4.88885C11.9109 4.8611 11.4762 4.80035 10.655 4.80035C8.94012 4.80035 7.93475 5.70598 7.93475 7.76923V9.01535H6.17188V10.8885H7.93475V16.0369C8.28387 16.0894 8.6375 16.125 9.0005 16.125C9.32862 16.125 9.64887 16.095 9.965 16.0522V10.8885Z" fill="white"/>
</g>
</svg>
